<svg width="83" height="35" viewBox="0 0 83 35" fill="none" xmlns="http://www.w3.org/2000/svg">
<g clip-path="url(#clip0_13_326)">
<path d="M78.2357 9.5781C74.9311 10.476 66.2135 13.6089 62.5034 14.9658C64.0645 13.569 67.957 10.0171 70.3493 7.18357C73.3903 3.59178 73.7958 1.19725 73.1876 0.399077C72.5794 -0.399098 71.363 -0.199554 69.0518 2.7936C67.0853 5.34777 62.4629 13.0103 61.1654 15.1853C59.7665 16.0034 56.0564 17.8991 49.3661 19.5553C48.0281 19.8945 46.6698 20.134 45.3317 20.3136C46.6698 18.6374 50.9678 13.3295 53.6033 10.516C56.3605 7.58266 56.2592 5.88653 55.3469 5.58722C54.4345 5.2879 52.8532 5.96635 50.8867 8.97946C49.1026 11.7132 44.9668 19.0963 44.2167 20.4333C38.2562 21.0519 32.3566 20.3535 26.9436 19.8147C29.1534 19.3557 34.1407 18.2383 37.1006 17.1608C40.9729 15.744 40.6688 13.4093 40.243 12.671C39.8173 11.9327 38.459 11.3141 35.4788 12.5713C32.7824 13.7087 26.6395 18.6973 25.4433 19.675C24.9365 19.6351 24.4297 19.5952 23.9228 19.5553C16.2189 18.9567 13.1778 16.9612 8.71764 13.3694C8.57572 13.2697 8.45408 13.1499 8.31216 13.0302C8.92037 12.9703 17.8407 14.5667 21.8955 13.9681C25.9502 13.3694 28.9912 12.9703 29.3967 10.9749C29.8022 8.97946 24.531 8.58038 19.0572 9.77764C14.3942 10.7953 9.14338 12.1522 7.68368 12.5313C3.73034 8.77992 0.689301 2.89338 0.689301 2.89338H0C0 2.89338 0.810943 5.04845 3.24377 8.81983C4.70347 11.1146 6.54836 13.2896 8.87982 15.1653C8.77846 17.6596 8.49463 25.5017 9.12311 29.5524C9.87323 34.4014 12.5899 35.2195 13.6036 34.9601C15.3065 34.541 15.1241 31.6477 13.9888 27.9361C12.9954 24.6636 10.3598 17.8991 9.44748 15.5844C10.8666 16.6619 12.4277 17.5998 14.1915 18.358C16.8068 19.4954 19.2599 20.0941 22.6253 20.5131C23.1524 22.0895 25.3217 28.455 27.0044 31.5678C28.9304 35.1596 31.5254 34.98 32.235 34.5211C33.4514 33.7229 33.0662 32.1266 31.4038 29.3928C30.086 27.1978 25.8488 22.5285 24.1864 20.7126C27.0855 21.012 30.6739 21.2315 35.4585 21.5707C36.4113 21.6305 37.3642 21.6705 38.3171 21.6705C39.2699 22.6083 44.1964 27.3974 47.1158 29.7121C50.3596 32.2662 51.9612 32.2463 52.245 31.4481C52.5288 30.6499 52.0017 29.3928 49.3661 27.4971C47.278 26.0006 41.6419 22.8478 39.4726 21.6505C45.2912 21.4909 50.6028 20.2337 54.6576 18.8968C55.286 19.1961 62.8278 22.8877 67.0042 24.4042C71.363 25.9806 73.1065 25.382 73.1673 24.4441C73.2281 23.5063 72.2347 22.3489 68.768 21.2714C65.8891 20.3734 58.3068 18.9766 55.7929 18.5177C58.5501 17.5599 60.5977 16.602 61.7128 16.0633C62.9089 15.9435 69.7816 15.2651 74.5662 14.1676C79.8171 12.9703 82.4121 11.1744 82.8784 10.0969C83.3447 9.01937 82.4932 8.4407 78.2357 9.5781Z" fill="url(#paint0_linear_13_326)"/>
</g>
<defs>
<linearGradient id="paint0_linear_13_326" x1="0" y1="17.4987" x2="83.0041" y2="17.4987" gradientUnits="userSpaceOnUse">
<stop stop-color="#CC9629"/>
<stop offset="0.5452" stop-color="#D2A036"/>
<stop offset="0.7663" stop-color="#F1D981"/>
</linearGradient>
<clipPath id="clip0_13_326">
<rect width="83" height="35" fill="white"/>
</clipPath>
</defs>
</svg>
